<svg xmlns="http://www.w3.org/2000/svg" xmlns:xlink="http://www.w3.org/1999/xlink" viewBox="0 0 500.16 500.17"><defs><style>.cls-1{fill:url(#linear-gradient);}.cls-2{fill:url(#linear-gradient-2);}.cls-3{fill:none;}.cls-4{fill:#79009f;}</style><linearGradient id="linear-gradient" x1="2.6" y1="342.22" x2="294" y2="342.22" gradientUnits="userSpaceOnUse"><stop offset="0" stop-color="#fff"/><stop offset="0" stop-color="#d2a9df"/><stop offset="1" stop-color="#79009f"/></linearGradient><linearGradient id="linear-gradient-2" x1="193.39" y1="259.35" x2="427.79" y2="259.35" xlink:href="#linear-gradient"/></defs><title>Asset 3</title><g id="Layer_2" data-name="Layer 2"><g id="Layer_1-2" data-name="Layer 1"><path class="cls-1" d="M195.4,487.42c-.06-.31-6.12-31.73-32.63-71.55C127.17,362.39,73.28,319.58,2.6,288.63L42.72,197c49.69,21.76,93.69,49.17,130.78,81.45a409.11,409.11,0,0,1,76.34,87.85C285.19,421.6,293.2,465.87,294,470.74l-98.68,16.17S195.34,487.08,195.4,487.42Z"/><path class="cls-2" d="M292.82,485.52l-99.43-10.69c.35-3.29,8.92-81.56,32.73-173.59C259.5,172.24,305.55,82.06,363,33.18l64.79,76.17c-40.29,34.28-77.53,111.32-104.86,216.94C300.94,411.31,292.89,484.78,292.82,485.52Z"/><path class="cls-3" d="M480.16,250.08c0,58.77-23.48,102.88-31.68,116.58-40,66.83-116.55,114.49-198.4,113.5C136.45,478.78,20,383.73,20,250.08,20,123,123,20,250.08,20S480.16,123,480.16,250.08Z"/><path class="cls-4" d="M252.55,500.17h-2.72c-61.53-.75-123.89-26.58-171.08-70.86C28,381.66,0,318,0,250.08A250.08,250.08,0,0,1,426.91,73.25a248.45,248.45,0,0,1,73.25,176.83c0,62.46-24.14,109.52-34.52,126.85C420.67,452,337.27,500.17,252.55,500.17ZM250.08,40C134.24,40,40,134.24,40,250.08c0,124.13,108.75,208.84,210.32,210.08h2.26c70.91,0,140.87-40.54,178.74-103.79,6.76-11.29,28.84-52.35,28.84-106.3C460.16,134.24,365.92,40,250.08,40Z"/></g></g></svg>