<svg xmlns="http://www.w3.org/2000/svg" xmlns:xlink="http://www.w3.org/1999/xlink" viewBox="0 0 2359.45 500.17"><defs><style>.cls-1{fill:#79009f;}.cls-2{fill:url(#linear-gradient);}.cls-3{fill:url(#linear-gradient-2);}.cls-4{fill:none;}</style><linearGradient id="linear-gradient" x1="2.6" y1="342.22" x2="294" y2="342.22" gradientUnits="userSpaceOnUse"><stop offset="0" stop-color="#fff"/><stop offset="0" stop-color="#d2a9df"/><stop offset="1" stop-color="#79009f"/></linearGradient><linearGradient id="linear-gradient-2" x1="195.93" y1="263.87" x2="429.94" y2="263.87" xlink:href="#linear-gradient"/></defs><title>Asset 2</title><g id="Layer_2" data-name="Layer 2"><g id="Layer_1-2" data-name="Layer 1"><path class="cls-1" d="M768.55,312.83H600.17q.55,41.4,20.15,60.17t50.52,18.77q22.06,0,38.36-5.52t36.16-17.12l18.22,33.68q-45.27,29.26-95,29.26-53,0-84.74-29.54T552.15,309q0-36.43,13.24-66.25A111.55,111.55,0,0,1,604.87,195Q631.08,177,669.18,177q32,0,54.65,13a85.13,85.13,0,0,1,34.23,35.61q11.6,22.65,11.59,51.89ZM624.06,230.9Q607.77,248,602.81,277.83H723.16v-2.21q0-30.92-14.08-46.37t-40-15.46Q640.35,213.79,624.06,230.9Z"/><path class="cls-1" d="M1052.3,312.83H883.92q.55,41.4,20.15,60.17t50.52,18.77q22.06,0,38.36-5.52t36.16-17.12l18.22,33.68q-45.27,29.26-94.95,29.26-53,0-84.74-29.54T835.89,309q0-36.43,13.25-66.25A111.55,111.55,0,0,1,888.62,195Q914.83,177,952.93,177q32,0,54.65,13a85.13,85.13,0,0,1,34.23,35.61q11.6,22.65,11.59,51.89ZM908.06,230.9Q891.77,248,886.81,277.83h120.35v-2.21q0-30.92-14.08-46.37t-40-15.46Q924.35,213.79,908.06,230.9Z"/><path class="cls-1" d="M1319.51,193q21.32,15.73,31.69,43.06t10.39,61.55q0,48-20.5,78.12t-51.64,43.34A163.27,163.27,0,0,1,1225,432.34q-36.62,0-85.8-16V45.9l47-5.52V198.82q38.79-21.54,80.33-21.53Q1298.19,177.29,1319.51,193Zm-31.77,177.76q24.84-22.35,24.84-74.25,0-37.53-14.36-58t-44.16-20.42q-32.58,0-67.9,16V388.72a183.89,183.89,0,0,0,37.54,4.42Q1262.88,393.14,1287.74,370.78ZM1186.16,428v4.86h-47v-18"/><path class="cls-1" d="M1469.64,424.33a156,156,0,0,1-48-24.57l21-33.67q40.29,28.71,83.91,28.71,24.86,0,38.09-8.56t13.25-25.12q0-13.25-11.86-22.91t-41.69-17.39l-17.11-4.42q-38.64-9.93-56.58-26.22t-17.95-43.33a59.33,59.33,0,0,1,11.6-36.16q11.6-15.74,32.29-24.57t46.65-8.83a194.13,194.13,0,0,1,47.75,5.79q22.9,5.8,46.65,19.6l-19.32,33.68q-22.65-12.13-39.2-16.84a129.39,129.39,0,0,0-35.33-4.69q-19.87,0-31.19,8t-11.31,21.26q0,11.58,9.1,17.94t31.75,12.42l17.11,4.42q31.47,8.28,50.51,18.76t27.88,25.12q8.82,14.64,8.83,35.06,0,22.08-11.31,38.92T1581.71,423q-22.1,9.38-53.55,9.39Q1495.58,432.34,1469.64,424.33Z"/><path class="cls-1" d="M1856.63,416.88a126.35,126.35,0,0,1-60.73,15.46q-34.23,0-54.1-19.6c-11.43-11.27-17.76-46.87-19.28-56.42a29.39,29.39,0,0,1-.36-4.59V221.83h-49v-38h49V129.26l47-7.73v62.3h81.95l-5,38h-77V346.21c.24,30.92,11.65,46.38,34.47,46.38a84.17,84.17,0,0,0,19.32-2.21,113.38,113.38,0,0,0,20.43-7.18Z"/><path class="cls-1" d="M2122.72,312.83H1954.34q.56,41.4,20.15,60.17T2025,391.77q22.07,0,38.37-5.52t36.15-17.12l18.22,33.68q-45.27,29.26-95,29.26-53,0-84.74-29.54T1906.32,309q0-36.43,13.25-66.25A111.46,111.46,0,0,1,1959,195q26.2-17.93,64.31-17.94,32,0,54.65,13a85.13,85.13,0,0,1,34.23,35.61q11.59,22.65,11.6,51.89ZM1978.06,230.9q-16.29,17.11-21.25,46.93h120.35v-2.21q0-30.92-14.08-46.37t-40-15.46Q1994.35,213.79,1978.06,230.9Z"/><path class="cls-1" d="M2343.05,178.51a163.23,163.23,0,0,1,16.4,3.31L2350.7,231q-18.59-6.63-33.88-6.62a68.54,68.54,0,0,0-32.24,7.72q-14.76,7.74-28.42,29.26V425.83h-47V183.47l47-5v34.77q13.65-17.65,31.7-26.77a83.72,83.72,0,0,1,38.25-9.11A118.55,118.55,0,0,1,2343.05,178.51Z"/><path class="cls-2" d="M195.4,487.42c-.06-.31-6.12-31.73-32.63-71.55C127.17,362.39,73.28,319.58,2.6,288.63L42.72,197c49.69,21.76,93.69,49.17,130.78,81.45a409.11,409.11,0,0,1,76.34,87.85C285.19,421.6,293.2,465.87,294,470.74l-98.68,16.17S195.34,487.08,195.4,487.42Z"/><path class="cls-3" d="M295.38,484.08l-99.45-10.51c9.4-88.8,23.64-160,44.83-224.09,26.34-79.64,63.18-147,112.61-205.82L429.94,108C353.94,198.46,313.69,310.94,295.38,484.08Z"/><path class="cls-4" d="M480.16,250.08c0,58.77-23.48,102.88-31.68,116.58-40,66.83-116.55,114.49-198.4,113.5C136.45,478.78,20,383.73,20,250.08,20,123,123,20,250.08,20S480.16,123,480.16,250.08Z"/><path class="cls-1" d="M252.55,500.17h-2.72c-61.53-.75-123.89-26.58-171.08-70.86C28,381.66,0,318,0,250.08A250.08,250.08,0,0,1,426.91,73.25a248.45,248.45,0,0,1,73.25,176.83c0,62.46-24.14,109.52-34.52,126.85C420.67,452,337.27,500.17,252.55,500.17ZM250.08,40C134.24,40,40,134.24,40,250.08c0,124.13,108.75,208.84,210.32,210.08h2.26c70.91,0,140.87-40.54,178.74-103.79,6.76-11.29,28.84-52.35,28.84-106.3C460.16,134.24,365.92,40,250.08,40Z"/></g></g></svg>